TITLE ""
FILE "1Q_t_0101-0109.mp3" MP3
  TRACK 01 AUDIO
    TITLE "1Q_t_0101-0109_01"
    INDEX 01 00:00:00
  TRACK 02 AUDIO
    TITLE "1Q_t_0101-0109_02"
    INDEX 01 00:01:33
  TRACK 03 AUDIO
    TITLE "1Q_t_0101-0109_03"
    INDEX 01 00:02:11
  TRACK 04 AUDIO
    TITLE "1Q_t_0101-0109_04"
    INDEX 01 00:03:16
  TRACK 05 AUDIO
    TITLE "1Q_t_0101-0109_05"
    INDEX 01 00:03:67
  TRACK 06 AUDIO
    TITLE "1Q_t_0101-0109_06"
    INDEX 01 00:04:75
  TRACK 07 AUDIO
    TITLE "1Q_t_0101-0109_07"
    INDEX 01 00:05:19
  TRACK 08 AUDIO
    TITLE "1Q_t_0101-0109_08"
    INDEX 01 00:08:73
  TRACK 09 AUDIO
    TITLE "1Q_t_0101-0109_09"
    INDEX 01 00:09:13
  TRACK 10 AUDIO
    TITLE "1Q_t_0101-0109_10"
    INDEX 01 00:15:69
  TRACK 11 AUDIO
    TITLE "1Q_t_0101-0109_11"
    INDEX 01 00:16:49
  TRACK 12 AUDIO
    TITLE "1Q_t_0101-0109_12"
    INDEX 01 00:17:62
  TRACK 13 AUDIO
    TITLE "1Q_t_0101-0109_13"
    INDEX 01 00:18:04
  TRACK 14 AUDIO
    TITLE "1Q_t_0101-0109_14"
    INDEX 01 00:21:18
  TRACK 15 AUDIO
    TITLE "1Q_t_0101-0109_15"
    INDEX 01 00:21:34
  TRACK 16 AUDIO
    TITLE "1Q_t_0101-0109_16"
    INDEX 01 00:27:64
  TRACK 17 AUDIO
    TITLE "1Q_t_0101-0109_17"
    INDEX 01 00:28:40
  TRACK 18 AUDIO
    TITLE "1Q_t_0101-0109_18"
    INDEX 01 00:29:61
  TRACK 19 AUDIO
    TITLE "1Q_t_0101-0109_19"
    INDEX 01 00:29:75
  TRACK 20 AUDIO
    TITLE "1Q_t_0101-0109_20"
    INDEX 01 00:33:22
  TRACK 21 AUDIO
    TITLE "1Q_t_0101-0109_21"
    INDEX 01 00:33:37
  TRACK 22 AUDIO
    TITLE "1Q_t_0101-0109_22"
    INDEX 01 00:40:55
  TRACK 23 AUDIO
    TITLE "1Q_t_0101-0109_23"
    INDEX 01 00:41:31
  TRACK 24 AUDIO
    TITLE "1Q_t_0101-0109_24"
    INDEX 01 00:42:48
  TRACK 25 AUDIO
    TITLE "1Q_t_0101-0109_25"
    INDEX 01 00:42:66
  TRACK 26 AUDIO
    TITLE "1Q_t_0101-0109_26"
    INDEX 01 00:46:34
  TRACK 27 AUDIO
    TITLE "1Q_t_0101-0109_27"
    INDEX 01 00:46:50
  TRACK 28 AUDIO
    TITLE "1Q_t_0101-0109_28"
    INDEX 01 00:51:08
  TRACK 29 AUDIO
    TITLE "1Q_t_0101-0109_29"
    INDEX 01 00:51:61
  TRACK 30 AUDIO
    TITLE "1Q_t_0101-0109_30"
    INDEX 01 00:53:09
  TRACK 31 AUDIO
    TITLE "1Q_t_0101-0109_31"
    INDEX 01 00:53:24
  TRACK 32 AUDIO
    TITLE "1Q_t_0101-0109_32"
    INDEX 01 00:54:53
  TRACK 33 AUDIO
    TITLE "1Q_t_0101-0109_33"
    INDEX 01 00:54:67
  TRACK 34 AUDIO
    TITLE "1Q_t_0101-0109_34"
    INDEX 01 00:59:40
  TRACK 35 AUDIO
    TITLE "1Q_t_0101-0109_35"
    INDEX 01 01:00:18
  TRACK 36 AUDIO
    TITLE "1Q_t_0101-0109_36"
    INDEX 01 01:01:41
  TRACK 37 AUDIO
    TITLE "1Q_t_0101-0109_37"
    INDEX 01 01:01:55
  TRACK 38 AUDIO
    TITLE "1Q_t_0101-0109_38"
    INDEX 01 01:05:10
  TRACK 39 AUDIO
    TITLE "1Q_t_0101-0109_39"
    INDEX 01 01:05:23
  TRACK 40 AUDIO
    TITLE "1Q_t_0101-0109_40"
    INDEX 01 01:09:49
  TRACK 41 AUDIO
    TITLE "1Q_t_0101-0109_41"
    INDEX 01 01:10:25
  TRACK 42 AUDIO
    TITLE "1Q_t_0101-0109_42"
    INDEX 01 01:11:42
  TRACK 43 AUDIO
    TITLE "1Q_t_0101-0109_43"
    INDEX 01 01:11:57
  TRACK 44 AUDIO
    TITLE "1Q_t_0101-0109_44"
    INDEX 01 01:12:59
  TRACK 45 AUDIO
    TITLE "1Q_t_0101-0109_45"
    INDEX 01 01:12:74
  TRACK 46 AUDIO
    TITLE "1Q_t_0101-0109_46"
    INDEX 01 01:17:01
  TRACK 47 AUDIO
    TITLE "1Q_t_0101-0109_47"
    INDEX 01 01:17:54
  TRACK 48 AUDIO
    TITLE "1Q_t_0101-0109_48"
    INDEX 01 01:18:67
  TRACK 49 AUDIO
    TITLE "1Q_t_0101-0109_49"
    INDEX 01 01:19:08
  TRACK 50 AUDIO
    TITLE "1Q_t_0101-0109_50"
    INDEX 01 01:22:36
  TRACK 51 AUDIO
    TITLE "1Q_t_0101-0109_51"
    INDEX 01 01:22:51
  TRACK 52 AUDIO
    TITLE "1Q_t_0101-0109_52"
    INDEX 01 01:27:33
  TRACK 53 AUDIO
    TITLE "1Q_t_0101-0109_53"
    INDEX 01 01:28:13
  TRACK 54 AUDIO
    TITLE "1Q_t_0101-0109_54"
    INDEX 01 01:29:40
  TRACK 55 AUDIO
    TITLE "1Q_t_0101-0109_55"
    INDEX 01 01:29:59
  TRACK 56 AUDIO
    TITLE "1Q_t_0101-0109_56"
    INDEX 01 01:33:22
  TRACK 57 AUDIO
    TITLE "1Q_t_0101-0109_57"
    INDEX 01 01:33:39
  TRACK 58 AUDIO
    TITLE "1Q_t_0101-0109_58"
    INDEX 01 01:38:43
